<?xml version="1.0" standalone="no"?>
<!DOCTYPE svg PUBLIC "-//W3C//DTD SVG 20010904//EN"
 "http://www.w3.org/TR/2001/REC-SVG-20010904/DTD/svg10.dtd">
<svg version="1.0" xmlns="http://www.w3.org/2000/svg"
 width="202.000000pt" height="202.000000pt" viewBox="0 0 202.000000 202.000000"
 preserveAspectRatio="xMidYMid meet">
<metadata>
Created by potrace 1.14, written by Peter Selinger 2001-2017
</metadata>
<g transform="translate(0.000000,202.000000) scale(0.100000,-0.100000)"
fill="#000000" stroke="none">
<path d="M203 1799 c-43 -12 -90 -62 -103 -107 -6 -23 -10 -197 -10 -449 l0
-413 -39 -39 c-41 -41 -54 -81 -46 -142 10 -75 85 -333 109 -374 30 -50 76
-75 136 -75 42 0 652 158 720 186 19 8 46 26 60 39 l26 25 129 -34 c72 -19
166 -44 210 -56 44 -12 103 -28 130 -35 28 -8 84 -23 125 -34 122 -34 193 -24
238 33 18 24 54 121 77 211 5 17 9 35 11 40 51 198 44 258 -35 310 l-30 20 -3
395 c-3 391 -3 395 -26 431 -12 20 -39 45 -60 55 -35 18 -79 19 -812 21 -454
1 -788 -2 -807 -8z"/>
</g>
</svg>
